<svg width="25" height="25" viewBox="0 0 25 25" fill="none" xmlns="http://www.w3.org/2000/svg">
<path d="M22.6562 21.5517L16.7562 15.6517C18.174 13.9496 18.8811 11.7664 18.7302 9.55628C18.5793 7.34618 17.5822 5.27932 15.9463 3.78566C14.3103 2.29201 12.1615 1.48657 9.94683 1.53689C7.73215 1.58721 5.62213 2.48942 4.05572 4.05584C2.4893 5.62226 1.58709 7.73227 1.53677 9.94695C1.48645 12.1616 2.29189 14.3104 3.78554 15.9464C5.27919 17.5823 7.34606 18.5795 9.55616 18.7303C11.7663 18.8812 13.9494 18.1742 15.6515 16.7564L21.5515 22.6564L22.6562 21.5517ZM3.12498 10.1564C3.12498 8.76571 3.53736 7.40629 4.30996 6.25C5.08257 5.09372 6.1807 4.19251 7.46549 3.66033C8.75028 3.12815 10.164 2.98891 11.528 3.26021C12.8919 3.53151 14.1447 4.20117 15.1281 5.18451C16.1114 6.16785 16.7811 7.4207 17.0524 8.78463C17.3237 10.1486 17.1844 11.5623 16.6523 12.8471C16.1201 14.1319 15.2189 15.23 14.0626 16.0026C12.9063 16.7752 11.5469 17.1876 10.1562 17.1876C8.29206 17.1855 6.50484 16.4441 5.18667 15.1259C3.86851 13.8077 3.12705 12.0205 3.12498 10.1564Z" fill="white"/>
</svg>
